#N canvas 50 50 1000 800 Ambient_Synthesizer_Modular 10;
#X text 50 20 PROYECTO: ELECTRONIC AMBIENT SYNTHESIZER (MODULAR);
#X text 50 40 Basado en el modelo MDA: PIM Machines y Relations;
#X text 50 100 1. SENALES DE CONTROL;
#X text 300 100 2. GENERACION DE AUDIO;
#X text 300 300 3. PROCESAMIENTO ESPECTRAL;
#X text 300 500 4. EFECTOS Y SALIDA FINAL;
#X obj 50 120 bng 20 250 50 0 empty empty empty 17 7 0 10 -262144 -1 -1;
#X text 600 700 Instrucciones:;
#X text 600 720 1. Presiona el BANG para iniciar.;
#X text 600 740 2. El ataque dura 15 segundos.;
#N canvas 0 0 450 300 space_modulator 0;
#X obj 20 20 inlet;
#X obj 20 60 osc~ 0.03;
#X obj 20 90 *~ 0.05;
#X obj 20 120 outlet~;
#X obj 150 60 vline~;
#X msg 150 30 1 15000 \, 0.85 5000 15000 \, 0 20000 20000;
#X obj 150 120 outlet~;
#X obj 280 60 osc~ 0.01;
#X obj 280 90 *~ 0.6;
#X obj 280 120 outlet~;
#X text 150 10 Envolvente DAHDSR;
#X text 20 10 Drift LFO;
#X text 280 10 Ultra Slow LFO;
#X connect 0 0 5 0;
#X connect 1 0 2 0;
#X connect 2 0 3 0;
#X connect 4 0 6 0;
#X connect 5 0 4 0;
#X connect 7 0 8 0;
#X connect 8 0 9 0;
#X restore 50 150 pd space_modulator;
#N canvas 0 0 450 350 drone_source 0;
#X obj 20 20 inlet~;
#X obj 120 20 inlet~;
#X obj 20 60 +~ 55;
#X obj 20 90 osc~;
#X obj 20 120 *~ 0.85;
#X obj 20 150 *~;
#X obj 150 60 +~ 82.5;
#X obj 150 90 osc~;
#X obj 150 120 *~ 0.65;
#X obj 280 90 osc~ 220;
#X obj 280 120 *~ 0.2;
#X obj 50 250 outlet~;
#X obj 150 250 outlet~;
#X connect 0 0 2 0;
#X connect 0 0 6 0;
#X connect 1 0 5 1;
#X connect 2 0 3 0;
#X connect 3 0 4 0;
#X connect 4 0 5 0;
#X connect 5 0 11 0;
#X connect 5 0 12 0;
#X connect 6 0 7 0;
#X connect 7 0 8 0;
#X connect 8 0 11 0;
#X connect 9 0 10 0;
#X connect 10 0 12 0;
#X restore 300 150 pd drone_source;
#N canvas 0 0 450 300 noise_texture 0;
#X obj 20 20 inlet~;
#X obj 20 60 noise~;
#X obj 20 90 lop~ 800;
#X obj 20 120 *~ 0.4;
#X obj 20 150 *~;
#X obj 150 60 noise~;
#X obj 150 90 lop~ 100;
#X obj 150 120 *~ 0.35;
#X obj 50 220 outlet~;
#X obj 150 220 outlet~;
#X connect 0 0 4 1;
#X connect 1 0 2 0;
#X connect 2 0 3 0;
#X connect 3 0 4 0;
#X connect 4 0 8 0;
#X connect 4 0 9 0;
#X connect 5 0 6 0;
#X connect 6 0 7 0;
#X connect 7 0 8 0;
#X connect 7 0 9 0;
#X restore 550 150 pd noise_texture;
#N canvas 0 0 450 400 spectral_filter 0;
#X obj 20 20 inlet~;
#X obj 120 20 inlet~;
#X obj 250 20 inlet~;
#X obj 250 60 *~ 400;
#X obj 250 90 +~ 800;
#X obj 20 130 vcf~ 2.5;
#X obj 120 130 vcf~ 2.5;
#X obj 20 170 hip~ 30;
#X obj 120 170 hip~ 30;
#X obj 20 220 bp~ 2000 1.4;
#X obj 20 250 *~ 2.5;
#X obj 20 280 +~;
#X obj 120 220 bp~ 2000 1.4;
#X obj 120 250 *~ 2.5;
#X obj 120 280 +~;
#X obj 20 350 outlet~;
#X obj 120 350 outlet~;
#X connect 0 0 5 0;
#X connect 1 0 6 0;
#X connect 2 0 3 0;
#X connect 3 0 4 0;
#X connect 4 0 5 1;
#X connect 4 0 6 1;
#X connect 5 0 7 0;
#X connect 6 0 8 0;
#X connect 7 0 9 0;
#X connect 7 0 11 0;
#X connect 8 0 12 0;
#X connect 8 0 14 0;
#X connect 9 0 10 0;
#X connect 10 0 11 1;
#X connect 12 0 13 0;
#X connect 13 0 14 1;
#X connect 11 0 15 0;
#X connect 14 0 16 0;
#X restore 300 350 pd spectral_filter;
#N canvas 0 0 500 500 ambient_output 0;
#X obj 20 20 inlet~;
#X obj 120 20 inlet~;
#X obj 250 20 inlet~;
#X obj 20 70 freeverb~;
#X obj 300 70 delwrite~ delL 2000;
#X obj 300 100 vd~ delL;
#X obj 300 130 sig~ 620;
#X obj 300 160 *~ 0.55;
#X obj 300 190 lop~ 3500;
#X obj 300 220 hip~ 80;
#X obj 500 70 delwrite~ delR 2000;
#X obj 500 100 vd~ delR;
#X obj 500 130 sig~ 620;
#X obj 500 160 *~ 0.55;
#X obj 500 190 lop~ 3500;
#X obj 500 220 hip~ 80;
#X obj 20 300 *~ 0.65;
#X obj 60 300 *~ 0.35;
#X obj 20 330 +~;
#X obj 120 300 *~ 0.65;
#X obj 160 300 *~ 0.35;
#X obj 120 330 +~;
#X obj 20 400 *~ 0.8;
#X obj 120 400 *~ 0.8;
#X obj 20 430 *~;
#X obj 120 430 *~;
#X obj 20 470 dac~;
#X connect 0 0 3 0;
#X connect 1 0 3 1;
#X connect 3 0 4 0;
#X connect 3 0 16 0;
#X connect 3 1 10 0;
#X connect 3 1 19 0;
#X connect 5 0 17 0;
#X connect 5 0 8 0;
#X connect 6 0 5 0;
#X connect 8 0 9 0;
#X connect 9 0 4 0;
#X connect 11 0 20 0;
#X connect 11 0 14 0;
#X connect 12 0 11 0;
#X connect 14 0 15 0;
#X connect 15 0 10 0;
#X connect 16 0 18 0;
#X connect 17 0 18 1;
#X connect 18 0 22 0;
#X connect 19 0 21 0;
#X connect 20 0 21 1;
#X connect 21 0 23 0;
#X connect 22 0 24 0;
#X connect 23 0 25 0;
#X connect 2 0 24 1;
#X connect 2 0 25 1;
#X connect 24 0 26 0;
#X connect 25 0 26 1;
#X restore 300 550 pd ambient_output;
#X connect 6 0 10 0;
#X connect 10 0 11 0;
#X connect 10 1 11 1;
#X connect 10 2 12 0;
#X connect 10 2 13 2;
#X connect 10 1 14 2;
#X connect 11 0 13 0;
#X connect 11 1 13 1;
#X connect 12 0 13 0;
#X connect 12 1 13 1;
#X connect 13 0 14 0;
#X connect 13 1 14 1;
