#N canvas 50 50 1100 1200 Ambient_Synthesizer 10;
#X obj 50 50 osc~ 0.01;
#X obj 50 80 *~ 0.6;
#X obj 200 20 r bang_env;
#X msg 200 50 1 15000 \, 0.85 5000 15000 \, 0 20000 20000;
#X obj 200 80 vline~;
#X obj 400 50 osc~ 0.03;
#X obj 400 80 *~ 0.05;
#X obj 50 200 +~ 55;
#X obj 50 230 osc~;
#X obj 50 260 *~ 0.85;
#X obj 50 290 *~;
#X obj 200 200 +~ 82.5;
#X obj 200 230 osc~;
#X obj 200 260 *~ 0.65;
#X obj 350 230 osc~ 220;
#X obj 350 260 *~ 0.2;
#X obj 500 200 noise~;
#X obj 500 230 lop~ 800;
#X obj 500 260 *~ 0.4;
#X obj 500 290 *~;
#X obj 650 200 noise~;
#X obj 650 230 lop~ 100;
#X obj 650 260 *~ 0.35;
#X obj 50 350 throw~ bus_L;
#X obj 150 350 throw~ bus_R;
#X obj 50 450 catch~ bus_L;
#X obj 150 450 catch~ bus_R;
#X obj 250 450 *~ 400;
#X obj 250 480 +~ 800;
#X obj 50 500 vcf~ 2.5;
#X obj 150 500 vcf~ 2.5;
#X obj 50 550 hip~ 30;
#X obj 150 550 hip~ 30;
#X obj 50 600 bp~ 2000 1.4;
#X obj 50 630 *~ 2.5;
#X obj 50 660 +~;
#X obj 150 600 bp~ 2000 1.4;
#X obj 150 630 *~ 2.5;
#X obj 150 660 +~;
#X obj 50 750 freeverb~;
#X obj 300 780 delwrite~ delL 2000;
#X obj 300 810 vd~ delL;
#X obj 300 840 sig~ 620;
#X obj 300 870 *~ 0.55;
#X obj 300 900 lop~ 3500;
#X obj 300 930 hip~ 80;
#X obj 50 880 *~ 0.65;
#X obj 80 880 *~ 0.35;
#X obj 50 910 +~;
#X obj 500 780 delwrite~ delR 2000;
#X obj 500 810 vd~ delR;
#X obj 500 840 sig~ 620;
#X obj 500 870 *~ 0.55;
#X obj 500 900 lop~ 3500;
#X obj 500 930 hip~ 80;
#X obj 150 880 *~ 0.65;
#X obj 180 880 *~ 0.35;
#X obj 150 910 +~;
#X obj 50 1000 *~ 0.8;
#X obj 150 1000 *~ 0.8;
#X obj 50 1030 *~;
#X obj 150 1030 *~;
#X obj 50 1060 dac~;
#X text 50 20 Space Modulator: Ultra Slow LFO;
#X text 200 20 Space Modulator: Ambient DAHDSR ENV;
#X text 400 20 Space Modulator: Random Drift LFO;
#X text 50 170 PIM Drone Source: Sub Drone Osc;
#X text 200 170 PIM Drone Source: Mid Drone Osc L;
#X text 350 170 PIM Drone Source: Shimmer Osc;
#X text 500 170 PIM Noise Texture: Pink Noise Layer;
#X text 650 170 PIM Noise Texture: Brown Noise Layer;
#X text 50 320 Drone Layer Mix & Texture Mix Bus -> L/R Summing Bus;
#X text 50 420 PIM Spectral Filter: Ambient LPF Ladder;
#X text 50 530 PIM Spectral Filter: Spectral HPF Air;
#X text 50 580 PIM Spectral Filter: Tonal EQ Enhancer;
#X text 50 720 PIM Ambient Output: Shimmer Reverb;
#X text 300 750 PIM Ambient Output: Atmospheric Delay L;
#X text 500 750 PIM Ambient Output: Atmospheric Delay R;
#X text 50 970 PIM Ambient Output: Glue Compressor (Pass-thru) & Master Gain Pan;
#X obj 200 -10 bng 15 250 50 0 empty empty empty 17 7 0 10 -262144 -1 -1;
#X connect 0 0 1 0;
#X connect 2 0 3 0;
#X connect 3 0 4 0;
#X connect 5 0 6 0;
#X connect 6 0 7 0;
#X connect 7 0 8 0;
#X connect 8 0 9 0;
#X connect 9 0 10 0;
#X connect 4 0 10 1;
#X connect 10 0 23 0;
#X connect 10 0 24 0;
#X connect 6 0 11 0;
#X connect 11 0 12 0;
#X connect 12 0 13 0;
#X connect 13 0 23 0;
#X connect 14 0 15 0;
#X connect 15 0 24 0;
#X connect 16 0 17 0;
#X connect 17 0 18 0;
#X connect 18 0 19 0;
#X connect 1 0 19 1;
#X connect 19 0 23 0;
#X connect 19 0 24 0;
#X connect 20 0 21 0;
#X connect 21 0 22 0;
#X connect 22 0 23 0;
#X connect 22 0 24 0;
#X connect 1 0 27 0;
#X connect 27 0 28 0;
#X connect 25 0 29 0;
#X connect 28 0 29 1;
#X connect 26 0 30 0;
#X connect 28 0 30 1;
#X connect 29 0 31 0;
#X connect 30 0 32 0;
#X connect 31 0 33 0;
#X connect 33 0 34 0;
#X connect 31 0 35 0;
#X connect 34 0 35 1;
#X connect 32 0 36 0;
#X connect 36 0 37 0;
#X connect 32 0 38 0;
#X connect 37 0 38 1;
#X connect 35 0 39 0;
#X connect 38 0 39 1;
#X connect 39 0 40 0;
#X connect 42 0 41 0;
#X connect 41 0 43 0;
#X connect 43 0 44 0;
#X connect 44 0 45 0;
#X connect 45 0 40 0;
#X connect 39 1 49 0;
#X connect 51 0 50 0;
#X connect 50 0 52 0;
#X connect 52 0 53 0;
#X connect 53 0 54 0;
#X connect 54 0 49 0;
#X connect 39 0 46 0;
#X connect 41 0 47 0;
#X connect 46 0 48 0;
#X connect 47 0 48 1;
#X connect 39 1 55 0;
#X connect 50 0 56 0;
#X connect 55 0 57 0;
#X connect 56 0 57 1;
#X connect 48 0 58 0;
#X connect 57 0 59 0;
#X connect 58 0 60 0;
#X connect 59 0 61 0;
#X connect 4 0 60 1;
#X connect 4 0 61 1;
#X connect 60 0 62 0;
#X connect 61 0 62 1;
#X connect 80 0 2 0;
