#N canvas 100 100 800 600 10;
#X obj 50 50 tgl 15 0 empty empty empty 17 7 0 10 -262144 -1 -1 0 1;
#X obj 50 80 metro 200;
#X obj 50 110 f;
#X obj 80 110 + 1;
#X obj 80 140 mod 4;
#X obj 50 170 sel 0 1 2 3;
#X msg 50 200 33;
#X msg 80 200 45;
#X msg 110 200 36;
#X msg 140 200 40;
#X obj 50 230 mtof;
#X obj 50 260 s arp_freq;
#X obj 150 230 bng 15 250 50 0 empty empty empty 17 7 0 10 -262144 -1 -1;
#X obj 150 260 s trig_arp;
#X obj 300 50 loadbang;
#X msg 300 80 \; pd dsp 1;
#N canvas 200 200 800 600 PIM_Arp_Bass_Voice 0;
#X obj 50 50 r trig_arp;
#X msg 50 80 0.85 5 \, 0.3 100 5 \, 0 30 105;
#X obj 50 110 vline~;
#X obj 200 20 r arp_freq;
#X obj 200 50 phasor~;
#X obj 200 80 -~ 0.5;
#X obj 200 110 *~ 2;
#X obj 200 150 *~;
#X obj 350 50 osc~ 2;
#X obj 350 80 *~ 200;
#X obj 350 110 +~ 600;
#X obj 200 200 bob~;
#X obj 280 170 sig~ 2.5;
#X obj 200 250 outlet~;
#X text 70 30 Arp Note Env (Plucky - corto y definido);
#X text 220 5 Saw Bass Osc;
#X text 370 30 Filter LFO (Barrido sutil);
#X text 250 200 Bass Res Filter (Menos resonancia);
#X connect 0 0 1 0;
#X connect 1 0 2 0;
#X connect 3 0 4 0;
#X connect 4 0 5 0;
#X connect 5 0 6 0;
#X connect 6 0 7 0;
#X connect 2 0 7 1;
#X connect 8 0 9 0;
#X connect 9 0 10 0;
#X connect 7 0 11 0;
#X connect 10 0 11 1;
#X connect 12 0 11 2;
#X connect 11 0 13 0;
#X restore 400 150 pd PIM_Arp_Bass_Voice;
#N canvas 250 250 800 600 PIM_Arp_FX_Output 0;
#X obj 50 50 inlet~;
#X obj 200 100 delwrite~ arp_del_L 50;
#X obj 400 100 delwrite~ arp_del_R 50;
#X obj 300 50 osc~ 0.3;
#X obj 200 150 *~ 1;
#X obj 200 180 +~ 15;
#X obj 200 210 vd~ arp_del_L;
#X obj 400 150 *~ -1;
#X obj 400 180 +~ 15;
#X obj 400 210 vd~ arp_del_R;
#X obj 200 250 *~ 0.35;
#X obj 400 250 *~ 0.35;
#X obj 50 250 *~ 0.65;
#X obj 100 250 *~ 0.65;
#X obj 200 300 +~;
#X obj 400 300 +~;
#X obj 200 350 *~ 1.41;
#X obj 400 350 *~ 1.41;
#X obj 200 400 outlet~;
#X obj 400 400 outlet~;
#X text 250 30 Arp Chorus (Sin efecto Doppler);
#X text 250 350 Arp Output Comp;
#X connect 0 0 1 0;
#X connect 0 0 2 0;
#X connect 0 0 12 0;
#X connect 0 0 13 0;
#X connect 3 0 4 0;
#X connect 3 0 7 0;
#X connect 4 0 5 0;
#X connect 5 0 6 0;
#X connect 7 0 8 0;
#X connect 8 0 9 0;
#X connect 6 0 10 0;
#X connect 9 0 11 0;
#X connect 10 0 14 0;
#X connect 12 0 14 1;
#X connect 11 0 15 0;
#X connect 13 0 15 1;
#X connect 14 0 16 0;
#X connect 15 0 17 0;
#X connect 16 0 18 0;
#X connect 17 0 19 0;
#X restore 400 200 pd PIM_Arp_FX_Output;
#X obj 400 250 dac~;
#X text 70 50 ENCENDER ARPEGIADOR;
#X connect 0 0 1 0;
#X connect 1 0 2 0;
#X connect 2 0 3 0;
#X connect 3 0 4 0;
#X connect 4 0 2 1;
#X connect 2 0 5 0;
#X connect 5 0 6 0;
#X connect 5 1 7 0;
#X connect 5 2 8 0;
#X connect 5 3 9 0;
#X connect 6 0 10 0;
#X connect 7 0 10 0;
#X connect 8 0 10 0;
#X connect 9 0 10 0;
#X connect 10 0 11 0;
#X connect 1 0 12 0;
#X connect 12 0 13 0;
#X connect 14 0 15 0;
#X connect 16 0 17 0;
#X connect 17 0 18 0;
#X connect 17 1 18 1;