#N canvas 543 144 800 600 10;
#N canvas 0 22 450 600 pd_kick_drum 0;
#X obj 50 20 inlet;
#X obj 50 180 osc~;
#X obj 200 80 vline~;
#X msg 200 50 150 \, 40 60 1;
#X obj 320 80 vline~;
#X msg 320 50 1 \, 0 300 1;
#X obj 50 250 *~;
#X obj 300 300 noise~;
#X obj 300 350 bp~ 1000 1.5;
#X obj 300 400 *~ 0.5;
#X obj 300 450 *~;
#X obj 150 500 +~;
#X obj 150 540 outlet~;
#X text 110 180 Kick Body Osc;
#X text 200 30 Pitch Env;
#X text 320 30 Amp Env;
#X text 350 450 Transient Env;
#X connect 0 0 3 0;
#X connect 0 0 5 0;
#X connect 3 0 2 0;
#X connect 5 0 4 0;
#X connect 2 0 1 0;
#X connect 1 0 6 0;
#X connect 4 0 6 1;
#X connect 7 0 8 0;
#X connect 8 0 9 0;
#X connect 9 0 10 0;
#X connect 4 0 10 1;
#X connect 6 0 11 0;
#X connect 10 0 11 1;
#X connect 11 0 12 0;
#X restore 100 150 pd pd_kick_drum;

#N canvas 0 22 450 600 pd_snare_drum 0;
#X obj 50 20 inlet;
#X obj 50 150 osc~ 200;
#X obj 250 80 vline~;
#X msg 250 50 1 \, 0 120 1;
#X obj 50 250 *~;
#X obj 300 300 noise~;
#X obj 300 350 hip~ 2000;
#X obj 300 400 *~ 0.6;
#X obj 300 450 *~;
#X obj 150 480 +~;
#X obj 150 540 outlet~;
#X text 120 150 Snare Tone Osc;
#X text 250 30 Amp Env (120ms);
#X text 350 450 Noise Env;
#X connect 0 0 3 0;
#X connect 3 0 2 0;
#X connect 1 0 4 0;
#X connect 2 0 4 1;
#X connect 5 0 6 0;
#X connect 6 0 7 0;
#X connect 7 0 8 0;
#X connect 2 0 8 1;
#X connect 4 0 9 0;
#X connect 8 0 9 1;
#X connect 9 0 10 0;
#X restore 250 150 pd pd_snare_drum;

#N canvas 0 22 550 500 pd_drum_mixer 0;
#X obj 50 50 inlet~;
#X obj 150 50 inlet~;
#X obj 50 450 outlet~;
#X obj 150 450 outlet~;
#X obj 100 120 +~;
#X obj 50 280 *~ 1.58;
#X obj 150 280 *~ 1.58;
#X text 50 310 Makeup Gain (4dB);
#X text 150 120 Drum Bus Mixer (Stereo Sum);
#X connect 0 0 4 0;
#X connect 1 0 4 0;
#X connect 4 0 5 0;
#X connect 4 0 6 0;
#X connect 5 0 2 0;
#X connect 6 0 3 0;
#X restore 100 250 pd pd_drum_mixer;

#X obj 100 350 dac~;
#X obj 100 70 bng 30 250 50 0 empty empty empty 17 7 0 10 -262144 -1 -1;
#X obj 250 70 bng 30 250 50 0 empty empty empty 17 7 0 10 -262144 -1 -1;
#X msg 400 70 \; pd dsp 1;
#X text 400 40 1. ENCENDER DSP (AUDIO);
#X text 100 40 2. TOCAR BOMBO;
#X text 250 40 3. TOCAR CAJA;
#X text 100 10 --- CAJA DE RITMOS INDEPENDIENTE ---;

#X connect 0 0 2 0;
#X connect 1 0 2 1;
#X connect 2 0 3 0;
#X connect 2 1 3 1;
#X connect 4 0 0 0;
#X connect 5 0 1 0;