#N canvas 100 100 800 600 10;
#X obj 50 50 tgl 15 0 empty empty empty 17 7 0 10 -262144 -1 -1 0 1;
#X obj 50 80 metro 400;
#X obj 50 110 f;
#X obj 80 110 + 1;
#X obj 80 140 mod 4;
#X obj 50 170 sel 0 1 2 3;
#X msg 50 200 33;
#X msg 80 200 45;
#X msg 110 200 36;
#X msg 140 200 40;
#X obj 50 230 mtof;
#X obj 50 260 s base_freq;
#X obj 150 230 bng 15 250 50 0 empty empty empty 17 7 0 10 -262144 -1 -1;
#X obj 150 260 s trig_note;
#X obj 300 50 loadbang;
#X msg 300 80 \; pd dsp 1;
#N canvas 200 200 800 600 PIM_80s_Bass_Core 0;
#X obj 50 20 r trig_note;
#X msg 50 50 1 10 \, 0.7 400 10 \, 0 200 500;
#X obj 50 80 vline~;
#X msg 200 50 1 0 \, 0.1 150 0 \, 0 200 500;
#X obj 200 80 vline~;
#X obj 200 110 *~ 1500;
#X obj 200 140 +~ 100;
#X obj 50 110 r base_freq;
#X obj 50 140 phasor~;
#X obj 50 170 -~ 0.5;
#X obj 50 200 *~ 2;
#X obj 50 230 *~;
#X obj 50 260 *~ 0.5;
#X obj 150 110 * 1.00727;
#X obj 150 140 phasor~;
#X obj 150 170 -~ 0.5;
#X obj 150 200 *~ 2;
#X obj 150 230 *~;
#X obj 150 260 *~ 0.5;
#X obj 250 110 * 0.5;
#X obj 250 140 phasor~;
#X obj 250 170 >~ 0.5;
#X obj 250 200 -~ 0.5;
#X obj 250 230 *~ 2;
#X obj 250 260 *~;
#X obj 250 290 *~ 0.3;
#X obj 100 320 +~;
#X obj 100 350 +~;
#X obj 150 380 sig~ 1.8;
#X obj 100 420 bob~;
#X obj 100 460 outlet~;
#X obj 150 460 outlet~;
#X text 20 10 Amp Env;
#X text 170 10 Filter Env (Deeping);
#X text 10 110 Saw 1;
#X text 110 110 Saw 2;
#X text 210 110 Sub Osc;
#X text 160 420 80s VCF (Res=1.8);
#X connect 0 0 1 0;
#X connect 0 0 3 0;
#X connect 1 0 2 0;
#X connect 3 0 4 0;
#X connect 4 0 5 0;
#X connect 5 0 6 0;
#X connect 7 0 8 0;
#X connect 8 0 9 0;
#X connect 9 0 10 0;
#X connect 10 0 11 0;
#X connect 2 0 11 1;
#X connect 11 0 12 0;
#X connect 7 0 13 0;
#X connect 13 0 14 0;
#X connect 14 0 15 0;
#X connect 15 0 16 0;
#X connect 16 0 17 0;
#X connect 2 0 17 1;
#X connect 17 0 18 0;
#X connect 7 0 19 0;
#X connect 19 0 20 0;
#X connect 20 0 21 0;
#X connect 21 0 22 0;
#X connect 22 0 23 0;
#X connect 23 0 24 0;
#X connect 2 0 24 1;
#X connect 24 0 25 0;
#X connect 12 0 26 0;
#X connect 18 0 26 1;
#X connect 26 0 27 0;
#X connect 25 0 27 1;
#X connect 27 0 29 0;
#X connect 6 0 29 1;
#X connect 28 0 29 2;
#X connect 29 0 30 0;
#X connect 29 0 31 0;
#X restore 400 150 pd PIM_80s_Bass_Core;
#N canvas 250 250 800 600 PIM_80s_Bass_FX 0;
#X obj 50 50 inlet~;
#X obj 150 50 inlet~;
#X obj 50 100 *~ 1.5;
#X obj 50 130 clip~ -0.7 0.7;
#X obj 50 160 *~ 0.6;
#X obj 150 100 *~ 1.5;
#X obj 150 130 clip~ -0.7 0.7;
#X obj 150 160 *~ 0.6;
#X obj 100 250 freeverb~;
#X obj 50 300 outlet~;
#X obj 150 300 outlet~;
#X text 50 20 Analog Saturation (Soft);
#X text 100 220 Room Reverb 80s;
#X connect 0 0 2 0;
#X connect 2 0 3 0;
#X connect 3 0 4 0;
#X connect 1 0 5 0;
#X connect 5 0 6 0;
#X connect 6 0 7 0;
#X connect 4 0 8 0;
#X connect 7 0 8 1;
#X connect 8 0 9 0;
#X connect 8 1 10 0;
#X restore 400 200 pd PIM_80s_Bass_FX;
#X obj 400 250 dac~;
#X text 70 20 SEQUENCER (80s Bass Pattern);
#X connect 0 0 1 0;
#X connect 1 0 2 0;
#X connect 1 0 12 0;
#X connect 2 0 3 0;
#X connect 2 0 5 0;
#X connect 3 0 4 0;
#X connect 4 0 2 1;
#X connect 5 0 6 0;
#X connect 5 1 7 0;
#X connect 5 2 8 0;
#X connect 5 3 9 0;
#X connect 6 0 10 0;
#X connect 7 0 10 0;
#X connect 8 0 10 0;
#X connect 9 0 10 0;
#X connect 10 0 11 0;
#X connect 12 0 13 0;
#X connect 14 0 15 0;
#X connect 16 0 17 0;
#X connect 16 1 17 1;
#X connect 17 0 18 0;
#X connect 17 1 18 1;